# xmcd
#
# Track frame offsets:
#	183
#	2993
#	13615
#	24133
#	36555
#	51480
#	64558
#	76015
#	88950
#	99363
#	108390
#	119583
#	131753
#	144678
#	155218
#	164740
#	184873
#	194563
#
# Disc length: 2740 seconds
#
# Revision: 1
# Processed by: cddbd v1.5.1PL2 Copyright (c) Steve Scherf et al.
# Submitted via: audiograbber 1.83.01
#
DISCID=030ab212
DTITLE=Compilation - Il était une fois... le western
DYEAR=1992
DGENRE=Western
TTITLE0=Sonnerie de l'armée du nord
TTITLE1=La conquête de l'ouest
TTITLE2=Rio bravo
TTITLE3=Les grands espaces
TTITLE4=La chevauchée fantastique
TTITLE5=Pour une poignée de dollars
TTITLE6=Les cavaliers du ciel
TTITLE7=Le bon, la brute et le truand
TTITLE8=Cat ballou
TTITLE9=OK corral
TTITLE10=On the trail
TTITLE11=Les mystères de l'ouest
TTITLE12=Mule train
TTITLE13=L'homme des vallées perdues
TTITLE14=Pendez-les haut et court
TTITLE15=Johnny Guitar
TTITLE16=J'entends siffler le train
TTITLE17=Snanee river
EXTD=
EXTT0=
EXTT1=
EXTT2=
EXTT3=
EXTT4=
EXTT5=
EXTT6=
EXTT7=
EXTT8=
EXTT9=
EXTT10=
EXTT11=
EXTT12=
EXTT13=
EXTT14=
EXTT15=
EXTT16=
EXTT17=
PLAYORDER=
